<svg width="16" height="20" viewBox="0 0 16 20" fill="none" xmlns="http://www.w3.org/2000/svg">
<path d="M10.2158 0L9.69918 1.14167L8.54918 1.66667L9.69918 2.19167L10.2158 3.33333L10.7408 2.19167L11.8825 1.66667L10.7408 1.14167L10.2158 0ZM6.46585 1.66667L5.55751 3.675L3.54918 4.58333L5.55751 5.49167L6.46585 7.5L7.38251 5.49167L9.38251 4.58333L7.38251 3.675L6.46585 1.66667ZM13.4575 4.28333C12.3492 4.21667 11.0825 4.70833 10.0825 5.7C8.75751 7.025 8.34085 8.81667 8.93251 10.0917L0.799179 18.225L1.97418 19.4L7.71585 13.675L13.4492 19.4083L14.6242 18.2333L8.89084 12.5L10.1158 11.275C11.3908 11.8667 13.1825 11.45 14.5075 10.125C16.0992 8.53333 16.4075 6.25 15.1825 5.025C14.7242 4.58333 14.1158 4.325 13.4575 4.28333ZM0.974179 4.58333C0.350293 5.20964 0 6.05764 0 6.94167C0 7.82569 0.350293 8.67369 0.974179 9.3L4.46585 12.7833L6.82418 10.4167L0.974179 4.58333Z" fill="#227B6F"/>
</svg>
