<svg width="17" height="17" viewBox="0 0 17 17" fill="none" xmlns="http://www.w3.org/2000/svg">
<path d="M5.62461 11.2503C5.35534 11.2509 5.0926 11.1674 4.87301 11.0116C4.65342 10.8558 4.48793 10.6353 4.39961 10.3809L3.90523 8.86154C3.78864 8.50704 3.59015 8.185 3.32586 7.92154C3.06195 7.65649 2.73988 7.45662 2.38523 7.33779L0.884607 6.84966C0.693058 6.78536 0.519172 6.67722 0.376804 6.53385C0.234435 6.39047 0.127518 6.21583 0.0645716 6.02383C0.00162478 5.83183 -0.0156124 5.62779 0.0142334 5.42795C0.0440792 5.22812 0.120183 5.03801 0.236482 4.87279C0.391482 4.65154 0.611482 4.48404 0.866482 4.39404L2.39086 3.90029C2.733 3.7795 3.04341 3.5829 3.29883 3.3252C3.55426 3.0675 3.74811 2.75537 3.86586 2.41216L4.36461 0.878412C4.45211 0.617787 4.62086 0.392162 4.84586 0.234037C5.06627 0.0816363 5.32788 0 5.59586 0C5.86383 0 6.12544 0.0816363 6.34586 0.234037C6.56461 0.388412 6.72961 0.606537 6.81836 0.859037L7.31523 2.38404C7.43292 2.73753 7.6315 3.05867 7.89517 3.3219C8.15883 3.58513 8.4803 3.78318 8.83398 3.90029L10.3371 4.38779C10.6096 4.47466 10.8465 4.64716 11.0134 4.87966C11.1682 5.09828 11.2514 5.35957 11.2514 5.62747C11.2514 5.89538 11.1682 6.15667 11.0134 6.37529C10.859 6.59404 10.6409 6.75966 10.3884 6.84966L8.86148 7.34591C8.50889 7.46285 8.18865 7.66086 7.92648 7.92404C7.66336 8.18841 7.46398 8.51029 7.34586 8.86404L6.85836 10.3653C6.7663 10.6235 6.59915 10.8484 6.37836 11.0109C6.15836 11.1672 5.89461 11.2515 5.62461 11.2503ZM12.8159 16.8753C12.5908 16.8761 12.3711 16.8068 12.1874 16.6768C12.0036 16.5468 11.865 16.3628 11.7909 16.1503L11.4484 15.1028C11.3785 14.8875 11.2588 14.6918 11.099 14.5315C10.9383 14.3715 10.7428 14.2506 10.5277 14.1784L9.49461 13.844C9.27555 13.7694 9.08583 13.6271 8.95273 13.4378C8.85491 13.3009 8.79036 13.1431 8.76419 12.9768C8.73802 12.8106 8.75096 12.6406 8.80198 12.4803C8.853 12.3199 8.9407 12.1737 9.05811 12.0531C9.17552 11.9326 9.31941 11.8411 9.47836 11.7859L10.529 11.4434C10.7392 11.3693 10.9296 11.248 11.0856 11.0887C11.2415 10.9294 11.3588 10.7364 11.4284 10.5247L11.7627 9.49341C11.8159 9.33207 11.9062 9.18549 12.0265 9.06554C12.1468 8.94559 12.2936 8.85563 12.4551 8.80294C12.6166 8.75024 12.7882 8.73629 12.9561 8.76222C13.124 8.78814 13.2834 8.85321 13.4215 8.95216C13.6059 9.08154 13.7446 9.26591 13.8177 9.47841L14.159 10.5259C14.231 10.7398 14.3517 10.934 14.5115 11.0932C14.6714 11.2524 14.8661 11.3723 15.0802 11.4434L16.1146 11.7809C16.3326 11.8486 16.5236 11.9834 16.6604 12.1661C16.7972 12.3488 16.8727 12.5701 16.8761 12.7983C16.8796 13.0266 16.8109 13.25 16.6797 13.4368C16.5485 13.6236 16.3617 13.7642 16.1459 13.8384L15.1002 14.1797C14.8858 14.2501 14.691 14.37 14.5315 14.5297C14.372 14.6902 14.2516 14.8852 14.1796 15.0997L13.8434 16.1309C13.7682 16.3495 13.626 16.5389 13.4371 16.6722C13.2559 16.8023 13.0389 16.8733 12.8159 16.8753Z" fill="#227B6F"/>
</svg>
